Name: Once Upon a Time in Anatolia (2011)

Director: Nuri Bilge Ceylan

Writers: Nuri Bilge Ceylan, Ebru Ceylan

Stars: Muhammet Uzuner, Yilmaz Erdogan and Taner Birsel

Language: Turkey

Subtitles: English

IMDB: http://www.imdb.com/title/tt1827487/

Award: Grand Prix of Jury in Cannes Film Festival 2011


Rip Spects:


General
Complete name          : Once.Upon.a.Time.in.Anatolia.DVDRip.AC3.HORiZON-ArtSubs.avi
Format                           : AVI
Format/Info                      : Audio Video Interleave
Format profile                   : OpenDML
File size                        : 2.05 GiB
Duration                         : 2h 30mn
Overall bit rate                 : 1 945 Kbps

Video
ID                               : 0
Format                           : MPEG-4 Visual
Format profile                   : Advanced Simple@L5
Format settings, BVOP            : 2
Format settings, QPel            : No
Format settings, GMC             : No warppoints
Format settings, Matrix          : Custom
Codec ID                         : XVID
Codec ID/Hint                    : XviD
Duration                         : 2h 30mn
Bit rate                         : 1 484 Kbps
Width                            : 720 pixels
Height                           : 304 pixels
Display aspect ratio             : 2.35:1
Frame rate                       : 25.000 fps
Color space                      : YUV
Chroma subsampling               : 4:2:0
Bit depth                        : 8 bits
Scan type                        : Progressive
Compression mode                 : Lossy
Bits/(Pixel*Frame)               : 0.271
Stream size                      : 1.56 GiB (76%)
Writing library                  : XviD 64

Audio
ID                               : 1
Format                           : AC-3
Format/Info                      : Audio Coding 3
Mode extension                   : CM (complete main)
Codec ID                         : 2000
Duration                         : 2h 30mn
Bit rate mode                    : Constant
Bit rate                         : 448 Kbps
Channel(s)                       : 6 channels
Channel positions                : Front: L C R, Side: L R, LFE
Sampling rate                    : 48.0 KHz
Bit depth                        : 16 bits
Compression mode                 : Lossy
Stream size                      : 483 MiB (23%)
Alignment                        : Split accross interleaves
Interleave, duration             : 40 ms (1.00 video frame)
Interleave, preload duration     : 500 ms

